HIERARCHY
ROOT hip
{
  OFFSET 0 0 0
  CHANNELS 6 Xposition Yposition Zposition Zrotation Yrotation Xrotation
  JOINT abdomen
  {
    OFFSET 0 20.6881 -0.73152
    CHANNELS 3 Zrotation Xrotation Yrotation
    JOINT chest
    {
      OFFSET 0 11.7043 -0.48768
      CHANNELS 3 Zrotation Xrotation Yrotation
      JOINT neck
      {
        OFFSET 0 22.1894 -2.19456
        CHANNELS 3 Zrotation Xrotation Yrotation
        JOINT head
        {
          OFFSET -0.24384 7.07133 1.2192
          CHANNELS 3 Zrotation Xrotation Yrotation
          JOINT leftEye
          {
            OFFSET 4.14528 8.04674 8.04672
            CHANNELS 3 Zrotation Xrotation Yrotation
            End Site
            {
              OFFSET 1 0 0
            }
          }
          JOINT rightEye
          {
            OFFSET -3.6576 8.04674 8.04672
            CHANNELS 3 Zrotation Xrotation Yrotation
            End Site
            {
              OFFSET 1 0 0
            }
          }
        }
      }
      JOINT rCollar
      {
        OFFSET -2.68224 19.2634 -4.8768
        CHANNELS 3 Zrotation Xrotation Yrotation
        JOINT rShldr
        {
          OFFSET -8.77824 -1.95073 1.46304
          CHANNELS 3 Zrotation Xrotation Yrotation
          JOINT rForeArm
          {
            OFFSET -28.1742 -1.7115 0.48768
            CHANNELS 3 Zrotation Xrotation Yrotation
            JOINT rHand
            {
              OFFSET -22.5879 0.773209 7.07136
              CHANNELS 3 Zrotation Xrotation Yrotation
              JOINT rThumb1
              {
                OFFSET -1.2192 -0.487915 3.41376
                CHANNELS 3 Zrotation Xrotation Yrotation
                JOINT rThumb2
                {
                  OFFSET -3.37035 -0.52449 3.41376
                  CHANNELS 3 Zrotation Xrotation Yrotation
                  End Site
                  {
                    OFFSET -1.78271 -1.18214 1.43049
                  }
                }
              }
              JOINT rIndex1
              {
                OFFSET -7.75947 0.938293 5.60832
                CHANNELS 3 Zrotation Xrotation Yrotation
                JOINT rIndex2
                {
                  OFFSET -2.54057 -0.884171 1.56538
                  CHANNELS 3 Zrotation Xrotation Yrotation
                  End Site
                  {
                    OFFSET -1.62519 -0.234802 1.16502
                  }
                }
              }
              JOINT rMid1
              {
                OFFSET -8.24714 1.18213 3.41376
                CHANNELS 3 Zrotation Xrotation Yrotation
                JOINT rMid2
                {
                  OFFSET -3.10165 -0.590103 1.0647
                  CHANNELS 3 Zrotation Xrotation Yrotation
                  End Site
                  {
                    OFFSET -2.48547 -0.328903 0.83742
                  }
                }
              }
              JOINT rRing1
              {
                OFFSET -8.82822 0.546677 1.51678
                CHANNELS 3 Zrotation Xrotation Yrotation
                JOINT rRing2
                {
                  OFFSET -2.60934 -0.819778 -0.0198488
                  CHANNELS 3 Zrotation Xrotation Yrotation
                  End Site
                  {
                    OFFSET -2.33842 -0.294052 0.168128
                  }
                }
              }
              JOINT rPinky1
              {
                OFFSET -8.27202 -0.0477905 -0.4584
                CHANNELS 3 Zrotation Xrotation Yrotation
                JOINT rPinky2
                {
                  OFFSET -1.82734 -0.647385 -0.700984
                  CHANNELS 3 Zrotation Xrotation Yrotation
                  End Site
                  {
                    OFFSET -1.69225 -0.51767 -0.607171
                  }
                }
              }
            }
          }
        }
      }
      JOINT lCollar
      {
        OFFSET 2.68224 19.2634 -4.8768
        CHANNELS 3 Zrotation Xrotation Yrotation
        JOINT lShldr
        {
          OFFSET 8.77824 -1.95073 1.46304
          CHANNELS 3 Zrotation Xrotation Yrotation
          JOINT lForeArm
          {
            OFFSET 28.1742 -1.7115 0.48768
            CHANNELS 3 Zrotation Xrotation Yrotation
            JOINT lHand
            {
              OFFSET 22.5879 0.773209 7.07136
              CHANNELS 3 Zrotation Xrotation Yrotation
              JOINT lThumb1
              {
                OFFSET 1.2192 -0.487915 3.41376
                CHANNELS 3 Zrotation Xrotation Yrotation
                JOINT lThumb2
                {
                  OFFSET 3.37035 -0.52449 3.41376
                  CHANNELS 3 Zrotation Xrotation Yrotation
                  End Site
                  {
                    OFFSET 1.78271 -1.18214 1.43049
                  }
                }
              }
              JOINT lIndex1
              {
                OFFSET 7.75947 0.938293 5.60832
                CHANNELS 3 Zrotation Xrotation Yrotation
                JOINT lIndex2
                {
                  OFFSET 2.54057 -0.884171 1.56538
                  CHANNELS 3 Zrotation Xrotation Yrotation
                  End Site
                  {
                    OFFSET 1.62519 -0.234802 1.16502
                  }
                }
              }
              JOINT lMid1
              {
                OFFSET 8.24714 1.18213 3.41376
                CHANNELS 3 Zrotation Xrotation Yrotation
                JOINT lMid2
                {
                  OFFSET 3.10165 -0.590103 1.0647
                  CHANNELS 3 Zrotation Xrotation Yrotation
                  End Site
                  {
                    OFFSET 2.48547 -0.328903 0.83742
                  }
                }
              }
              JOINT lRing1
              {
                OFFSET 8.82822 0.546677 1.51678
                CHANNELS 3 Zrotation Xrotation Yrotation
                JOINT lRing2
                {
                  OFFSET 2.60934 -0.819778 -0.0198488
                  CHANNELS 3 Zrotation Xrotation Yrotation
                  End Site
                  {
                    OFFSET 2.33842 -0.294052 0.168128
                  }
                }
              }
              JOINT lPinky1
              {
                OFFSET 8.27202 -0.0477905 -0.4584
                CHANNELS 3 Zrotation Xrotation Yrotation
                JOINT lPinky2
                {
                  OFFSET 1.82734 -0.647385 -0.700984
                  CHANNELS 3 Zrotation Xrotation Yrotation
                  End Site
                  {
                    OFFSET 1.69225 -0.51767 -0.607171
                  }
                }
              }
            }
          }
        }
      }
    }
  }
  JOINT rButtock
  {
    OFFSET -8.77824 4.35084 1.2192
    CHANNELS 3 Zrotation Xrotation Yrotation
    JOINT rThigh
    {
      OFFSET 0 -1.70687 -2.19456
      CHANNELS 3 Zrotation Xrotation Yrotation
      JOINT rShin
      {
        OFFSET 0 -36.8199 0.73152
        CHANNELS 3 Zrotation Xrotation Yrotation
        JOINT rFoot
        {
          OFFSET 0.73152 -45.1104 -5.12064
          CHANNELS 3 Zrotation Xrotation Yrotation
          End Site
          {
            OFFSET -1.1221 -3.69964 12.103
          }
        }
      }
    }
  }
  JOINT lButtock
  {
    OFFSET 8.77824 4.35084 1.2192
    CHANNELS 3 Zrotation Xrotation Yrotation
    JOINT lThigh
    {
      OFFSET 0 -1.70687 -2.19456
      CHANNELS 3 Zrotation Xrotation Yrotation
      JOINT lShin
      {
        OFFSET 0 -36.8199 0.73152
        CHANNELS 3 Zrotation Xrotation Yrotation
        JOINT lFoot
        {
          OFFSET -0.73152 -45.1104 -5.12064
          CHANNELS 3 Zrotation Xrotation Yrotation
          End Site
          {
            OFFSET 1.1221 -3.69964 12.103
          }
        }
      }
    }
  }
}
MOTION
Frames:	8
Frame Time:	0.03333
0.0 0.0 0.0 0.0 0.0 0.0 0.0 0.0 0.0 0.0 0.0 0.0 0.0 0.0 0.0 0.0 0.0 0.0 0.0 0.0 0.0 0.0 0.0 0.0 0.0 0.0 0.0 0.0 0.0 0.0 0.0 0.0 0.0 0.0 0.0 0.0 0.0 0.0 0.0 0.0 0.0 0.0 0.0 0.0 0.0 0.0 0.0 0.0 0.0 0.0 0.0 0.0 0.0 0.0 0.0 0.0 0.0 0.0 0.0 0.0 0.0 0.0 0.0 0.0 0.0 0.0 0.0 0.0 0.0 0.0 0.0 0.0 0.0 0.0 0.0 0.0 0.0 0.0 0.0 0.0 0.0 0.0 0.0 0.0 0.0 0.0 0.0 0.0 0.0 0.0 0.0 0.0 0.0 0.0 0.0 0.0 0.0 0.0 0.0 0.0 0.0 0.0 0.0 0.0 0.0 0.0 0.0 0.0 0.0 0.0 0.0 0.0 0.0 0.0 0.0 0.0 0.0 0.0 0.0 0.0 0.0 0.0 0.0 0.0 0.0 0.0 0.0 0.0 0.0 0.0 0.0 0.0
0.0522 49.8954 -0.0626 -174.800546 -28.81744 -178.671783 -1.812495 0.274514 57.16129 -4.867825 -5.859035 -54.13931 -6.675637 12.625665 -113.457962 3.707472 13.00453 105.989548 0.000829 0.0 0.00018 0.000829 0.0 0.00018 -9.651364 34.836246 11.199018 -104.847573 -86.951702 -122.661698 -26.70035 63.82558 62.701763 -3.380141 -7.29087 -2.462132 -94.792107 37.828819 54.283492 -18.35635 -11.439964 31.1068 -139.765396 2.950805 115.639777 2.069693 13.476619 -6.656467 -159.364591 -2.685899 142.596388 -163.686722 -6.018169 143.087602 0.003125 1.770519 0.555775 -148.360388 -76.775645 -171.091187 -124.85193 -29.038873 -122.621774 71.289561 84.335673 -32.43537 159.222608 -48.72516 -170.56633 -30.449413 -30.52572 -27.774492 82.352348 -41.594553 108.376774 -62.635914 -73.356149 -46.625224 5.762814 5.575512 -1.1588 72.258669 24.074571 -67.477065 138.492706 4.895306 -114.863514 -45.037208 -55.053199 -1.913168 153.321414 13.629169 -138.86267 -80.988442 -77.639411 -52.469401 -0.005406 1.853557 -0.581416 156.688291 -39.817625 -176.615661 132.162669 -18.655129 129.692735 25.079545 -40.424852 26.927816 179.995562 75.749583 0.004579 135.467075 29.893944 -0.0 61.995992 79.737681 -26.232822 125.987722 -53.389653 41.143086 -179.997081 75.750658 -0.002402 -135.007443 24.50156 -102.881437 -93.969032 -9.057417 153.123043 132.906554 -69.593459 48.576867
0.0839 49.838100000000004 -0.0819 -174.810154 -28.747231 -178.638242 -0.044171 1.299464 6.234533 -0.335567 -8.385098 -2.970867 -1.471136 -2.842724 -6.076274 4.297168 7.550444 -2.761085 -0.002872 0.0 -0.002593 0.002975 -0.0 -0.00478 -6.251389 26.219131 7.468339 11.30278 -12.361855 -2.143977 -86.648066 36.635669 61.634851 88.806776 -76.748795 71.04993 -159.653439 2.600971 88.800111 -141.589457 2.622009 69.73394 2.324683 -3.868188 -1.258989 166.162635 -48.115529 97.605271 -158.522162 -0.191879 142.145877 80.986908 -77.631976 52.515897 -145.11962 0.227351 -179.198037 -66.971811 87.687886 80.221476 0.549517 1.456093 0.507413 -13.847372 -31.173799 -14.913958 9.651719 34.836155 -11.199345 126.853967 -75.324228 132.298862 129.313938 -6.621531 -146.843151 -107.904309 -74.068783 -89.723431 121.364719 30.329263 -71.957437 136.086585 -13.267125 -70.91864 166.8238 -43.973454 -122.060777 -168.936542 -58.058439 -104.146876 -3.961793 -12.153979 1.887697 167.359146 -17.304667 -144.220299 145.119391 0.267696 179.212572 -11.907205 29.602336 5.642708 12.372686 -24.158546 11.757367 -15.429095 42.846411 -8.450413 -0.001132 -0.001033 -0.001132 -43.822247 -28.47094 -63.585239 -176.144484 87.752434 -75.413107 158.901399 45.244353 113.893589 -179.999943 75.748972 -0.0 -134.655496 25.151852 -67.220603 -98.89767 25.899075 -160.599499 -146.98324 83.808674 31.47398
0.1031 49.7523 -0.10020000000000001 -174.80542 -28.690877 -178.617605 0.602007 -3.452741 -172.110291 0.504262 3.717237 175.306569 0.533558 -3.418867 6.209841 3.709067 7.522824 -15.243457 -0.000404 0.0 -0.002016 -0.00054 -0.0 0.000251 -155.548753 -3.804181 161.900129 96.07853 -73.764179 79.598562 -51.471841 2.125943 -16.585317 69.380395 -76.515279 52.388794 -1.584025 1.556049 0.264542 173.724925 -79.570288 96.222383 -140.164626 2.325968 115.877251 -63.596072 56.772712 45.589576 -36.036656 51.723342 29.831358 -172.146285 -31.869259 143.95831 -145.100238 -1.521356 -178.650667 -147.99661 -43.026642 -170.609598 -135.065962 -13.383517 -132.469955 -1.900727 -10.820184 -5.708322 82.877562 68.299889 -86.000604 -19.91753 12.921103 7.911768 1.597006 -89.544295 -31.20858 7.385139 8.608719 1.279593 162.891421 -0.575691 -89.353664 143.733001 3.54574 -71.471973 -159.638368 -69.972676 -102.393094 21.295229 44.807556 -15.191182 -7.904176 -24.807616 3.012728 11.698627 33.731217 -9.254931 0.001744 -0.018614 0.004961 61.431817 -86.804477 82.98445 -12.249931 41.425424 -10.279777 152.620897 27.372415 146.582512 0.000433 -0.000107 -0.000556 -44.058587 -28.333663 -63.873727 -97.842117 76.853406 10.615759 171.27681 22.352814 -61.855114 0.003213 -0.000107 0.001607 47.874281 -30.762835 30.432316 -97.430268 57.784206 6.954199 -179.974337 7.802924 -91.827781
0.10809999999999999 49.664199999999994 -0.12639999999999998 -174.844932 -28.605013 -178.649486 0.322147 1.36163 0.005764 0.311342 -8.652037 3.204295 10.720573 9.899317 120.800314 -0.657948 9.018831 -130.860021 0.004619 -0.0 -0.001783 -0.001108 0.0 -0.00191 -157.796795 -22.115176 165.468392 58.674113 -66.14637 47.869788 121.840605 11.796162 -170.07944 -96.439419 67.833327 74.482411 116.30936 -50.010023 56.954027 -17.1858 -53.416292 -29.762441 -77.667353 43.029106 64.538617 -1.514096 11.89939 -1.968726 -169.08953 -33.247352 145.375236 -25.648634 49.015914 21.150729 -73.164697 -72.142519 -90.198096 12.118412 45.607661 2.556528 -144.109693 8.782125 -140.873903 -147.488001 11.689711 -141.694183 155.504158 -3.514667 -161.838097 -178.364959 -64.322303 -142.660153 -5.824355 -50.97322 -39.917906 8.116379 10.008847 1.161519 7.351442 7.062219 -1.569877 160.142884 -66.200036 -110.955341 -10.283166 -18.182191 4.5862 64.486034 48.976473 -51.291882 0.220162 0.638239 -0.124112 166.742305 -15.547509 -144.162023 145.121476 1.975536 179.748631 150.821634 -33.722617 173.390584 142.2005 3.267379 139.146193 146.004757 7.771043 140.751128 -0.000956 0.001414 -0.000956 -44.874666 -27.734113 -25.770297 104.888061 60.054834 111.821746 -152.013826 23.913877 -123.47993 -179.995527 75.74993 -0.003061 -136.539027 24.806722 77.751486 91.399632 11.432828 -52.047703 -172.888085 0.741661 28.44458
0.1164 49.5843 -0.149 -174.895247 -28.491308 -178.73423 -1.997504 -0.877722 89.483972 -6.39182 -2.664178 -86.674763 -6.106027 13.298053 -122.100089 2.149705 12.337605 113.880292 -0.003275 0.0 -0.003595 -0.003354 -0.0 0.001701 -155.416922 -2.951391 161.718759 -121.636277 54.644133 135.656586 -61.421281 71.636132 103.834839 -2.718235 -13.317686 -3.015494 -176.927153 -14.53259 89.659655 29.375371 -67.766457 22.623179 0.184329 -0.300386 -0.104915 -160.909751 -12.882534 110.129464 -17.370865 35.631821 12.955139 -11.510042 33.757221 9.294296 -145.12203 1.975283 -179.749141 11.656536 26.407725 -5.983828 -75.778653 -51.666943 -74.249728 -19.766633 -37.476646 -21.94677 155.762692 -5.234794 -162.199781 -39.016378 -32.657841 -19.18773 108.598051 -56.964264 86.662214 -4.414139 -28.67996 1.12424 176.927817 -14.532358 -89.659183 49.234271 -12.660397 -6.888303 72.555791 43.282343 -59.93243 164.788932 -10.893963 -113.707806 161.152685 -8.16087 -143.464786 168.159328 -19.506801 -143.882119 0.015883 -1.323194 0.415572 6.073284 62.273636 -18.854521 -5.058338 14.86551 -4.562819 147.195977 10.262095 143.311918 -179.994203 75.749409 -0.003966 134.061649 29.472179 26.035276 83.059284 54.688459 -46.861814 -127.376497 26.145592 21.313069 -179.983087 75.750925 -0.011572 -136.390312 24.178723 113.265783 100.476581 -25.077424 20.919508 -36.293643 11.700101 -105.065608
0.13699999999999998 49.5352 -0.1441 -174.951903 -28.319576 -178.827906 0.437565 1.635819 0.005734 0.179975 -8.87095 3.00888 -8.615405 8.936734 -93.245211 3.304956 11.919148 84.528065 -0.002188 -0.0 0.000988 -0.002188 -0.0 0.000988 -5.824351 24.937405 6.989363 10.414088 48.552574 -3.262136 176.537516 70.038545 108.945951 -178.817956 -5.45863 143.164815 -166.631511 -4.30464 89.772262 16.324568 -58.406794 18.4664 -135.71147 8.931946 113.08018 -6.617831 25.794787 -1.903613 -0.057098 0.168051 0.031174 -25.201376 49.214436 20.686143 -75.944314 -72.110297 -93.113612 -149.781033 -27.452447 -179.757328 11.372998 37.937125 9.666036 -23.519897 -39.964045 -23.665965 155.613589 -4.236536 -161.990758 72.435635 67.18671 -102.026738 168.518828 75.997348 149.817101 7.510299 7.767564 1.406255 2.924724 2.862672 -0.519524 122.329542 -15.202087 -109.322859 1.160594 1.861411 -0.668016 61.005589 48.057477 -46.601259 164.638715 -19.283472 -144.73378 -177.164696 -53.048697 -139.404135 145.099609 -1.521064 178.650077 153.183623 -19.043873 176.449693 -0.464088 1.226384 -0.430434 127.338377 -31.014313 125.72774 0.000161 -0.001668 -0.000207 -45.536571 -30.056303 -180.0 -96.382376 -38.267121 -9.691575 171.232218 -61.261884 -105.086702 -0.000948 -0.001231 0.001219 49.790374 -31.955693 -114.10444 -105.814737 -83.700816 38.641664 -177.571632 -7.207036 -42.624609
0.1632 49.5241 -0.14220000000000002 -175.034761 -28.118438 -178.897251 -1.764614 0.28818 67.365744 -6.06229 -5.025848 -64.873641 2.044259 -3.484139 17.604371 3.516741 7.642223 -28.185301 0.004015 -0.0 -0.000734 -0.001712 0.0 -0.000843 -143.298892 38.837385 147.737281 23.921595 -3.955083 9.771648 75.481253 54.085879 -139.337657 -165.953523 29.609609 137.194398 51.059107 -41.20434 12.856805 -147.782939 -23.482985 126.397369 -145.520691 -6.585006 118.767173 -79.882222 57.281149 61.129547 -161.517035 -9.304642 143.625121 -172.319794 -31.360078 143.653632 -70.37892 -72.128807 -87.280852 -64.852606 -82.433049 -90.812814 -29.90042 -41.144735 -28.886978 -84.602184 -53.534729 -84.89454 155.445654 -3.134757 -161.757042 136.111936 22.969456 -157.199099 -96.585698 -41.413162 -40.656299 159.280044 44.863687 -132.470946 -11.11147 -11.091595 0.640791 112.528439 9.116538 -101.076813 1.159931 1.861622 -0.667853 167.870607 -22.1501 -109.410753 36.035963 51.723208 -29.83213 10.110937 31.490316 -8.290951 0.001585 0.063911 -0.019198 23.388538 72.955226 -36.41514 161.704924 70.563843 151.027832 26.082891 -40.429383 26.335942 -179.975373 75.749733 -0.020262 134.975867 29.418931 -0.0 -14.469073 89.290892 -45.345237 107.583833 33.709344 4.810204 -179.998695 75.748646 -0.000893 -136.328224 25.620778 49.541125 96.783756 37.066854 -14.185415 -137.956673 55.598956 24.846923
